<mxfile host="app.diagrams.net" modified="2023-04-21T05:46:27.059Z" agent="Mozilla/5.0 (Windows NT 10.0; Win64; x64) AppleWebKit/537.36 (KHTML, like Gecko) Chrome/112.0.0.0 Safari/537.36 Edg/112.0.1722.39" etag="gWgpq6wq24FvDhUQjB30" version="21.1.7" type="github" pages="6">
  <diagram name="标注侧" id="YAax4Ib2rblbw97E96Yk">
    <mxGraphModel dx="1857" dy="2212" grid="1" gridSize="10" guides="1" tooltips="1" connect="1" arrows="1" fold="1" page="1" pageScale="1" pageWidth="827" pageHeight="1169" math="0" shadow="0">
      <root>
        <mxCell id="0" />
        <mxCell id="1" parent="0" />
        <mxCell id="lDQXNf2I-t8oq4e-PjMP-1" value="足量数据" style="rounded=0;whiteSpace=wrap;html=1;" parent="1" vertex="1">
          <mxGeometry x="230" y="70" width="120" height="60" as="geometry" />
        </mxCell>
        <mxCell id="lDQXNf2I-t8oq4e-PjMP-2" value="少量样例数据" style="rounded=0;whiteSpace=wrap;html=1;" parent="1" vertex="1">
          <mxGeometry x="220" y="350" width="120" height="60" as="geometry" />
        </mxCell>
        <mxCell id="lDQXNf2I-t8oq4e-PjMP-3" value="数据预处理&lt;br&gt;（）" style="rounded=0;whiteSpace=wrap;html=1;" parent="1" vertex="1">
          <mxGeometry x="420" y="10" width="120" height="540" as="geometry" />
        </mxCell>
        <mxCell id="TS2IeG8F_A2VGEh3oIl9-1" value="" style="rounded=1;whiteSpace=wrap;html=1;fillColor=none;" parent="1" vertex="1">
          <mxGeometry x="120" y="-30" width="660" height="680" as="geometry" />
        </mxCell>
        <mxCell id="TS2IeG8F_A2VGEh3oIl9-2" value="模型数据标注" style="text;html=1;strokeColor=none;fillColor=none;align=center;verticalAlign=middle;whiteSpace=wrap;rounded=0;" parent="1" vertex="1">
          <mxGeometry x="430" y="-80" width="120" height="30" as="geometry" />
        </mxCell>
        <mxCell id="TS2IeG8F_A2VGEh3oIl9-3" value="" style="rounded=1;whiteSpace=wrap;html=1;fillColor=none;" parent="1" vertex="1">
          <mxGeometry x="110" y="900" width="660" height="680" as="geometry" />
        </mxCell>
        <mxCell id="TS2IeG8F_A2VGEh3oIl9-4" value="数据管理" style="text;html=1;strokeColor=none;fillColor=none;align=center;verticalAlign=middle;whiteSpace=wrap;rounded=0;" parent="1" vertex="1">
          <mxGeometry x="420" y="850" width="120" height="30" as="geometry" />
        </mxCell>
        <mxCell id="TS2IeG8F_A2VGEh3oIl9-5" value="" style="rounded=1;whiteSpace=wrap;html=1;fillColor=none;" parent="1" vertex="1">
          <mxGeometry x="920" y="910" width="660" height="680" as="geometry" />
        </mxCell>
        <mxCell id="TS2IeG8F_A2VGEh3oIl9-6" value="信息收集" style="text;html=1;strokeColor=none;fillColor=none;align=center;verticalAlign=middle;whiteSpace=wrap;rounded=0;" parent="1" vertex="1">
          <mxGeometry x="1230" y="860" width="120" height="30" as="geometry" />
        </mxCell>
        <mxCell id="1pnAlq9tV1FfkCs1XQQu-1" value="" style="edgeStyle=orthogonalEdgeStyle;rounded=0;orthogonalLoop=1;jettySize=auto;html=1;" edge="1" parent="1" source="1pnAlq9tV1FfkCs1XQQu-2" target="1pnAlq9tV1FfkCs1XQQu-4">
          <mxGeometry relative="1" as="geometry" />
        </mxCell>
        <mxCell id="1pnAlq9tV1FfkCs1XQQu-2" value="&lt;font style=&quot;font-size: 18px&quot;&gt;标注需求&lt;/font&gt;" style="rounded=0;whiteSpace=wrap;html=1;" vertex="1" parent="1">
          <mxGeometry x="980" y="180" width="120" height="60" as="geometry" />
        </mxCell>
        <mxCell id="1pnAlq9tV1FfkCs1XQQu-3" value="" style="edgeStyle=orthogonalEdgeStyle;rounded=0;orthogonalLoop=1;jettySize=auto;html=1;" edge="1" parent="1" source="1pnAlq9tV1FfkCs1XQQu-4" target="1pnAlq9tV1FfkCs1XQQu-6">
          <mxGeometry relative="1" as="geometry" />
        </mxCell>
        <mxCell id="1pnAlq9tV1FfkCs1XQQu-4" value="&lt;font style=&quot;font-size: 18px&quot;&gt;确认字段含义&lt;/font&gt;" style="rounded=0;whiteSpace=wrap;html=1;" vertex="1" parent="1">
          <mxGeometry x="1180" y="180" width="120" height="60" as="geometry" />
        </mxCell>
        <mxCell id="1pnAlq9tV1FfkCs1XQQu-5" value="" style="edgeStyle=orthogonalEdgeStyle;rounded=0;orthogonalLoop=1;jettySize=auto;html=1;" edge="1" parent="1" source="1pnAlq9tV1FfkCs1XQQu-6" target="1pnAlq9tV1FfkCs1XQQu-8">
          <mxGeometry relative="1" as="geometry" />
        </mxCell>
        <mxCell id="1pnAlq9tV1FfkCs1XQQu-6" value="&lt;font style=&quot;font-size: 16px;&quot;&gt;试标注&lt;br style=&quot;font-size: 16px;&quot;&gt;反馈期间遇到的问题&lt;/font&gt;" style="rounded=0;whiteSpace=wrap;html=1;fontSize=16;" vertex="1" parent="1">
          <mxGeometry x="1380" y="180" width="120" height="60" as="geometry" />
        </mxCell>
        <mxCell id="1pnAlq9tV1FfkCs1XQQu-7" value="" style="edgeStyle=orthogonalEdgeStyle;rounded=0;orthogonalLoop=1;jettySize=auto;html=1;fontSize=15;" edge="1" parent="1" source="1pnAlq9tV1FfkCs1XQQu-8" target="1pnAlq9tV1FfkCs1XQQu-10">
          <mxGeometry relative="1" as="geometry" />
        </mxCell>
        <mxCell id="1pnAlq9tV1FfkCs1XQQu-8" value="&lt;font style=&quot;font-size: 15px;&quot;&gt;熟悉字段后，优化操作：调整brat工具快捷键等&lt;/font&gt;" style="rounded=0;whiteSpace=wrap;html=1;fontSize=15;" vertex="1" parent="1">
          <mxGeometry x="1580" y="180" width="120" height="60" as="geometry" />
        </mxCell>
        <mxCell id="1pnAlq9tV1FfkCs1XQQu-9" value="" style="edgeStyle=orthogonalEdgeStyle;rounded=0;orthogonalLoop=1;jettySize=auto;html=1;fontSize=15;" edge="1" parent="1" source="1pnAlq9tV1FfkCs1XQQu-10" target="1pnAlq9tV1FfkCs1XQQu-12">
          <mxGeometry relative="1" as="geometry" />
        </mxCell>
        <mxCell id="1pnAlq9tV1FfkCs1XQQu-10" value="标注一定量后，与算法沟通预训练模型" style="rounded=0;whiteSpace=wrap;html=1;fontSize=15;" vertex="1" parent="1">
          <mxGeometry x="1580" y="320" width="120" height="60" as="geometry" />
        </mxCell>
        <mxCell id="1pnAlq9tV1FfkCs1XQQu-11" value="" style="edgeStyle=orthogonalEdgeStyle;rounded=0;orthogonalLoop=1;jettySize=auto;html=1;fontSize=15;" edge="1" parent="1" source="1pnAlq9tV1FfkCs1XQQu-12" target="1pnAlq9tV1FfkCs1XQQu-14">
          <mxGeometry relative="1" as="geometry" />
        </mxCell>
        <mxCell id="1pnAlq9tV1FfkCs1XQQu-12" value="基于模型处理过的语料标注，校验+标注" style="rounded=0;whiteSpace=wrap;html=1;fontSize=15;" vertex="1" parent="1">
          <mxGeometry x="1380" y="320" width="120" height="60" as="geometry" />
        </mxCell>
        <mxCell id="1pnAlq9tV1FfkCs1XQQu-13" value="" style="edgeStyle=orthogonalEdgeStyle;rounded=0;orthogonalLoop=1;jettySize=auto;html=1;fontSize=15;" edge="1" parent="1" source="1pnAlq9tV1FfkCs1XQQu-14" target="1pnAlq9tV1FfkCs1XQQu-16">
          <mxGeometry relative="1" as="geometry" />
        </mxCell>
        <mxCell id="1pnAlq9tV1FfkCs1XQQu-14" value="完成一次标注" style="rounded=0;whiteSpace=wrap;html=1;fontSize=15;" vertex="1" parent="1">
          <mxGeometry x="1180" y="320" width="120" height="60" as="geometry" />
        </mxCell>
        <mxCell id="1pnAlq9tV1FfkCs1XQQu-15" value="" style="edgeStyle=orthogonalEdgeStyle;rounded=0;orthogonalLoop=1;jettySize=auto;html=1;fontSize=15;" edge="1" parent="1" source="1pnAlq9tV1FfkCs1XQQu-16" target="1pnAlq9tV1FfkCs1XQQu-18">
          <mxGeometry relative="1" as="geometry" />
        </mxCell>
        <mxCell id="1pnAlq9tV1FfkCs1XQQu-16" value="模型基于部分语料训练，另外一部分做测试集" style="rounded=0;whiteSpace=wrap;html=1;fontSize=15;" vertex="1" parent="1">
          <mxGeometry x="980" y="320" width="120" height="60" as="geometry" />
        </mxCell>
        <mxCell id="1pnAlq9tV1FfkCs1XQQu-17" value="" style="edgeStyle=orthogonalEdgeStyle;rounded=0;orthogonalLoop=1;jettySize=auto;html=1;fontSize=15;" edge="1" parent="1" source="1pnAlq9tV1FfkCs1XQQu-18" target="1pnAlq9tV1FfkCs1XQQu-19">
          <mxGeometry relative="1" as="geometry" />
        </mxCell>
        <mxCell id="1pnAlq9tV1FfkCs1XQQu-18" value="针对效果算法评估是否需要迭代" style="rounded=0;whiteSpace=wrap;html=1;fontSize=15;" vertex="1" parent="1">
          <mxGeometry x="980" y="460" width="120" height="60" as="geometry" />
        </mxCell>
        <mxCell id="1pnAlq9tV1FfkCs1XQQu-19" value="基于diff文件，修正测试集，完成一次校验" style="rounded=0;whiteSpace=wrap;html=1;fontSize=15;" vertex="1" parent="1">
          <mxGeometry x="1180" y="460" width="120" height="60" as="geometry" />
        </mxCell>
        <mxCell id="1pnAlq9tV1FfkCs1XQQu-20" value="必步骤可循环" style="text;html=1;strokeColor=none;fillColor=none;align=center;verticalAlign=middle;whiteSpace=wrap;rounded=0;fontSize=15;" vertex="1" parent="1">
          <mxGeometry x="1175" y="430" width="130" height="20" as="geometry" />
        </mxCell>
      </root>
    </mxGraphModel>
  </diagram>
  <diagram id="0tmmvUThTKmWr_leAzdm" name="平台">
    <mxGraphModel dx="880" dy="494" grid="1" gridSize="10" guides="1" tooltips="1" connect="1" arrows="1" fold="1" page="1" pageScale="1" pageWidth="827" pageHeight="1169" math="0" shadow="0">
      <root>
        <mxCell id="0" />
        <mxCell id="1" parent="0" />
      </root>
    </mxGraphModel>
  </diagram>
  <diagram id="sKj-2CTDXvAZse3E1Smf" name="算法侧">
    <mxGraphModel dx="880" dy="494" grid="1" gridSize="10" guides="1" tooltips="1" connect="1" arrows="1" fold="1" page="1" pageScale="1" pageWidth="827" pageHeight="1169" math="0" shadow="0">
      <root>
        <mxCell id="0" />
        <mxCell id="1" parent="0" />
      </root>
    </mxGraphModel>
  </diagram>
  <diagram id="uC31jNrYqdi7XHqqUkVB" name="文件管理侧">
    <mxGraphModel dx="880" dy="494" grid="1" gridSize="10" guides="1" tooltips="1" connect="1" arrows="1" fold="1" page="1" pageScale="1" pageWidth="827" pageHeight="1169" math="0" shadow="0">
      <root>
        <mxCell id="0" />
        <mxCell id="1" parent="0" />
      </root>
    </mxGraphModel>
  </diagram>
  <diagram id="UZ9wccwawinMBmHLIlsm" name="前端">
    <mxGraphModel dx="838" dy="470" grid="1" gridSize="10" guides="1" tooltips="1" connect="1" arrows="1" fold="1" page="1" pageScale="1" pageWidth="827" pageHeight="1169" math="0" shadow="0">
      <root>
        <mxCell id="0" />
        <mxCell id="1" parent="0" />
        <mxCell id="DOrzI2ncTwfLIa81HKQh-5" value="" style="edgeStyle=orthogonalEdgeStyle;rounded=0;orthogonalLoop=1;jettySize=auto;html=1;" parent="1" target="DOrzI2ncTwfLIa81HKQh-4" edge="1">
          <mxGeometry relative="1" as="geometry">
            <mxPoint x="430" y="200" as="sourcePoint" />
          </mxGeometry>
        </mxCell>
        <mxCell id="DOrzI2ncTwfLIa81HKQh-4" value="发送请求&lt;br&gt;获取背景图片" style="whiteSpace=wrap;html=1;rounded=0;" parent="1" vertex="1">
          <mxGeometry x="510" y="170" width="120" height="60" as="geometry" />
        </mxCell>
        <mxCell id="DOrzI2ncTwfLIa81HKQh-6" value="首页" style="rounded=0;whiteSpace=wrap;html=1;" parent="1" vertex="1">
          <mxGeometry x="70" y="270" width="120" height="60" as="geometry" />
        </mxCell>
        <mxCell id="DOrzI2ncTwfLIa81HKQh-7" value="登录模块" style="rounded=0;whiteSpace=wrap;html=1;" parent="1" vertex="1">
          <mxGeometry x="310" y="170" width="120" height="60" as="geometry" />
        </mxCell>
        <mxCell id="DOrzI2ncTwfLIa81HKQh-8" value="背景模块" style="rounded=0;whiteSpace=wrap;html=1;" parent="1" vertex="1">
          <mxGeometry x="290" y="270" width="120" height="60" as="geometry" />
        </mxCell>
        <mxCell id="DOrzI2ncTwfLIa81HKQh-15" style="edgeStyle=orthogonalEdgeStyle;rounded=0;orthogonalLoop=1;jettySize=auto;html=1;entryX=0.5;entryY=0;entryDx=0;entryDy=0;" parent="1" source="DOrzI2ncTwfLIa81HKQh-9" target="DOrzI2ncTwfLIa81HKQh-14" edge="1">
          <mxGeometry relative="1" as="geometry" />
        </mxCell>
        <mxCell id="DOrzI2ncTwfLIa81HKQh-9" value="图片组件" style="rounded=1;whiteSpace=wrap;html=1;" parent="1" vertex="1">
          <mxGeometry x="280" y="410" width="120" height="60" as="geometry" />
        </mxCell>
        <mxCell id="DOrzI2ncTwfLIa81HKQh-21" style="edgeStyle=orthogonalEdgeStyle;rounded=0;orthogonalLoop=1;jettySize=auto;html=1;" parent="1" source="DOrzI2ncTwfLIa81HKQh-10" edge="1">
          <mxGeometry relative="1" as="geometry">
            <mxPoint x="340" y="800" as="targetPoint" />
          </mxGeometry>
        </mxCell>
        <mxCell id="DOrzI2ncTwfLIa81HKQh-10" value="请求接口获取图片url" style="whiteSpace=wrap;html=1;rounded=1;" parent="1" vertex="1">
          <mxGeometry x="280" y="680" width="120" height="60" as="geometry" />
        </mxCell>
        <mxCell id="DOrzI2ncTwfLIa81HKQh-13" value="直接用本地" style="whiteSpace=wrap;html=1;rounded=1;" parent="1" vertex="1">
          <mxGeometry x="470" y="550" width="120" height="60" as="geometry" />
        </mxCell>
        <mxCell id="DOrzI2ncTwfLIa81HKQh-16" style="edgeStyle=orthogonalEdgeStyle;rounded=0;orthogonalLoop=1;jettySize=auto;html=1;entryX=0;entryY=0.5;entryDx=0;entryDy=0;" parent="1" source="DOrzI2ncTwfLIa81HKQh-14" target="DOrzI2ncTwfLIa81HKQh-13" edge="1">
          <mxGeometry relative="1" as="geometry" />
        </mxCell>
        <mxCell id="DOrzI2ncTwfLIa81HKQh-17" style="edgeStyle=orthogonalEdgeStyle;rounded=0;orthogonalLoop=1;jettySize=auto;html=1;entryX=0.5;entryY=0;entryDx=0;entryDy=0;" parent="1" source="DOrzI2ncTwfLIa81HKQh-14" target="DOrzI2ncTwfLIa81HKQh-10" edge="1">
          <mxGeometry relative="1" as="geometry" />
        </mxCell>
        <mxCell id="DOrzI2ncTwfLIa81HKQh-14" value="和llocalstorage要" style="rhombus;whiteSpace=wrap;html=1;" parent="1" vertex="1">
          <mxGeometry x="300" y="540" width="80" height="80" as="geometry" />
        </mxCell>
        <mxCell id="DOrzI2ncTwfLIa81HKQh-18" value="无数据" style="text;html=1;align=center;verticalAlign=middle;resizable=0;points=[];autosize=1;strokeColor=none;fillColor=none;" parent="1" vertex="1">
          <mxGeometry x="340" y="640" width="60" height="30" as="geometry" />
        </mxCell>
        <mxCell id="DOrzI2ncTwfLIa81HKQh-19" value="初始化" style="text;html=1;align=center;verticalAlign=middle;resizable=0;points=[];autosize=1;strokeColor=none;fillColor=none;" parent="1" vertex="1">
          <mxGeometry x="334" y="490" width="60" height="30" as="geometry" />
        </mxCell>
        <mxCell id="DOrzI2ncTwfLIa81HKQh-27" value="" style="endArrow=none;dashed=1;html=1;dashPattern=1 3;strokeWidth=2;rounded=0;" parent="1" edge="1">
          <mxGeometry width="50" height="50" relative="1" as="geometry">
            <mxPoint x="640" y="800" as="sourcePoint" />
            <mxPoint x="640" y="410" as="targetPoint" />
          </mxGeometry>
        </mxCell>
        <mxCell id="DOrzI2ncTwfLIa81HKQh-34" value="" style="edgeStyle=orthogonalEdgeStyle;rounded=0;orthogonalLoop=1;jettySize=auto;html=1;" parent="1" source="DOrzI2ncTwfLIa81HKQh-30" target="DOrzI2ncTwfLIa81HKQh-33" edge="1">
          <mxGeometry relative="1" as="geometry" />
        </mxCell>
        <mxCell id="DOrzI2ncTwfLIa81HKQh-37" style="edgeStyle=orthogonalEdgeStyle;rounded=0;orthogonalLoop=1;jettySize=auto;html=1;entryX=0;entryY=0.5;entryDx=0;entryDy=0;" parent="1" source="DOrzI2ncTwfLIa81HKQh-30" target="DOrzI2ncTwfLIa81HKQh-10" edge="1">
          <mxGeometry relative="1" as="geometry">
            <mxPoint x="340" y="980" as="targetPoint" />
            <Array as="points">
              <mxPoint x="340" y="940" />
              <mxPoint x="260" y="940" />
              <mxPoint x="260" y="710" />
            </Array>
          </mxGeometry>
        </mxCell>
        <mxCell id="DOrzI2ncTwfLIa81HKQh-30" value="url接口数据" style="rhombus;whiteSpace=wrap;html=1;" parent="1" vertex="1">
          <mxGeometry x="300" y="800" width="80" height="80" as="geometry" />
        </mxCell>
        <mxCell id="DOrzI2ncTwfLIa81HKQh-33" value="1.添加加载动画&lt;br&gt;2.基于el-image渲染" style="whiteSpace=wrap;html=1;rounded=1;align=center;" parent="1" vertex="1">
          <mxGeometry x="470" y="810" width="120" height="60" as="geometry" />
        </mxCell>
        <mxCell id="DOrzI2ncTwfLIa81HKQh-35" value="有数据" style="text;html=1;align=center;verticalAlign=middle;resizable=0;points=[];autosize=1;strokeColor=none;fillColor=none;" parent="1" vertex="1">
          <mxGeometry x="390" y="550" width="60" height="30" as="geometry" />
        </mxCell>
        <mxCell id="DOrzI2ncTwfLIa81HKQh-36" value="获取成功" style="text;html=1;align=center;verticalAlign=middle;resizable=0;points=[];autosize=1;strokeColor=none;fillColor=none;" parent="1" vertex="1">
          <mxGeometry x="380" y="805" width="70" height="30" as="geometry" />
        </mxCell>
        <mxCell id="DOrzI2ncTwfLIa81HKQh-38" value="获取失败&lt;br&gt;1.基于el-image回调重试，并提示&lt;br&gt;2.显示兜底图片" style="text;html=1;align=left;verticalAlign=middle;resizable=0;points=[];autosize=1;strokeColor=none;fillColor=none;" parent="1" vertex="1">
          <mxGeometry x="70" y="810" width="200" height="60" as="geometry" />
        </mxCell>
        <mxCell id="uw0mjo5URNsfaLpxlkcJ-1" value="右键菜单栏组件" style="rounded=1;whiteSpace=wrap;html=1;" vertex="1" parent="1">
          <mxGeometry x="770" y="410" width="120" height="60" as="geometry" />
        </mxCell>
        <mxCell id="uw0mjo5URNsfaLpxlkcJ-2" value="&lt;div style=&quot;text-align: left;&quot;&gt;&lt;span style=&quot;background-color: initial;&quot;&gt;1.封装ContextMenu组件，暴露show属性，left，right坐标&lt;/span&gt;&lt;/div&gt;&lt;div style=&quot;text-align: left;&quot;&gt;&lt;span style=&quot;background-color: initial;&quot;&gt;使用在外部组件绑定@contextmenu.prevent即可&lt;/span&gt;&lt;/div&gt;&lt;div style=&quot;text-align: left;&quot;&gt;2.图片组件需要导入，用作用户自定义上传图片&lt;/div&gt;" style="text;html=1;align=center;verticalAlign=middle;resizable=0;points=[];autosize=1;strokeColor=none;fillColor=none;" vertex="1" parent="1">
          <mxGeometry x="690" y="475" width="330" height="60" as="geometry" />
        </mxCell>
        <mxCell id="uw0mjo5URNsfaLpxlkcJ-3" value="图片组件" style="rounded=1;whiteSpace=wrap;html=1;" vertex="1" parent="1">
          <mxGeometry x="690" y="550" width="120" height="60" as="geometry" />
        </mxCell>
        <mxCell id="uw0mjo5URNsfaLpxlkcJ-4" value="直接用本地" style="whiteSpace=wrap;html=1;rounded=1;" vertex="1" parent="1">
          <mxGeometry x="690" y="660" width="120" height="60" as="geometry" />
        </mxCell>
      </root>
    </mxGraphModel>
  </diagram>
  <diagram id="0i6SlbW-bRRI0hF2lcDl" name="概率论与数理统计">
    <mxGraphModel dx="880" dy="494" grid="1" gridSize="10" guides="1" tooltips="1" connect="1" arrows="1" fold="1" page="1" pageScale="1" pageWidth="827" pageHeight="1169" math="0" shadow="0">
      <root>
        <mxCell id="0" />
        <mxCell id="1" parent="0" />
        <mxCell id="YRqnVKcMOQQR8fkaXt60-3" value="" style="edgeStyle=orthogonalEdgeStyle;rounded=0;orthogonalLoop=1;jettySize=auto;html=1;" parent="1" source="YRqnVKcMOQQR8fkaXt60-1" target="YRqnVKcMOQQR8fkaXt60-2" edge="1">
          <mxGeometry relative="1" as="geometry" />
        </mxCell>
        <mxCell id="YRqnVKcMOQQR8fkaXt60-1" value="前置条件" style="rounded=0;whiteSpace=wrap;html=1;" parent="1" vertex="1">
          <mxGeometry x="200" y="50" width="120" height="60" as="geometry" />
        </mxCell>
        <mxCell id="YRqnVKcMOQQR8fkaXt60-2" value="书籍：《》" style="whiteSpace=wrap;html=1;rounded=0;" parent="1" vertex="1">
          <mxGeometry x="60" y="170" width="120" height="60" as="geometry" />
        </mxCell>
      </root>
    </mxGraphModel>
  </diagram>
</mxfile>
